<svg width="1086" height="918" viewBox="0 0 1086 918" fill="none" xmlns="http://www.w3.org/2000/svg">
<path d="M1086 917.5V0H495C507.38 161.076 934.715 -26.9192 837.429 295.895C811.667 381.387 915.866 418.434 957.152 503.797C998.419 589.16 951.01 603.076 963.385 754.517C975.785 905.977 1086 917.5 1086 917.5Z" fill="url(#paint0_linear_403_3364)"/>
<path d="M993.82 21.1899C995.96 15.1899 997.77 9.05984 999.2 2.83984C999.406 1.8946 999.605 0.94799 999.798 0H1006.28C1005.99 1.41644 1005.69 2.82988 1005.38 4.23999C1003.85 10.7 1001.94 17.0798 999.67 23.3298C994.98 35.7698 988.77 47.6799 980.9 58.4099C977.06 63.8499 972.7 68.87 968.21 73.76C963.58 78.51 958.82 83.1398 953.67 87.3098C943.48 95.7698 932.38 103.06 920.76 109.3C909.14 115.54 897.01 120.75 884.64 125.17C872.26 129.56 859.65 133.29 846.89 136.28C821.36 142.26 795.41 146.09 769.34 148.21C717.16 152.45 664.74 149.93 612.89 144.4C561.319 138.885 510.193 130.349 459.128 121.823L458.15 121.66C406.76 113.09 355.38 104.4 303.6 98.96C290.66 97.59 277.69 96.4999 264.71 95.5999C251.73 94.7299 238.72 94.1899 225.72 93.9299C199.72 93.5099 173.66 94.44 147.83 97.54C144.61 97.96 141.37 98.28 138.16 98.78L128.51 100.22C122.11 101.34 115.69 102.41 109.34 103.81C96.6199 106.49 83.9899 109.67 71.6099 113.67C59.2299 117.64 47.0096 122.15 35.1196 127.43C23.2496 132.74 11.6597 138.67 0.389648 145.19L0 144.53C11.26 137.94 22.85 131.93 34.73 126.55C46.63 121.2 58.8597 116.61 71.2598 112.56C83.6598 108.48 96.3096 105.23 109.06 102.47C115.43 101.04 121.86 99.93 128.28 98.77L137.95 97.27C141.17 96.75 144.42 96.42 147.65 95.98C173.55 92.73 199.68 91.67 225.76 91.96C238.8 92.15 251.84 92.6199 264.86 93.4299C277.87 94.2699 290.88 95.2999 303.85 96.5999C355.77 101.78 407.25 110.22 458.68 118.52L459.088 118.586C510.382 126.884 561.687 135.184 613.32 140.43C665.04 145.67 717.21 147.9 768.95 143.42C794.79 141.18 820.5 137.24 845.68 131.21C858.27 128.19 870.67 124.45 882.81 120.07C894.94 115.66 906.79 110.5 918.09 104.35C929.39 98.2099 940.13 91.0698 949.94 82.8398C954.9 78.7898 959.47 74.2999 963.9 69.7C968.19 64.9699 972.36 60.1299 976.01 54.8899C983.5 44.5699 989.38 33.1299 993.82 21.1899Z" fill="url(#paint1_linear_403_3364)"/>
<defs>
<linearGradient id="paint0_linear_403_3364" x1="793.001" y1="-9" x2="793.001" y2="918.002" gradientUnits="userSpaceOnUse">
<stop stop-color="#130B75"/>
<stop offset="1" stop-color="#000FF5"/>
</linearGradient>
<linearGradient id="paint1_linear_403_3364" x1="770.5" y1="95.5" x2="486" y2="126" gradientUnits="userSpaceOnUse">
<stop stop-color="#00F5BE"/>
<stop offset="1" stop-color="#000FF5"/>
</linearGradient>
</defs>
</svg>
